<?xml version="1.0" encoding="utf-8"?>
<!-- Generator: Adobe Illustrator 22.0.0, SVG Export Plug-In . SVG Version: 6.00 Build 0)  -->
<svg version="1.1" id="Layer_1" xmlns="http://www.w3.org/2000/svg" xmlns:xlink="http://www.w3.org/1999/xlink" x="0px" y="0px"
	 viewBox="0 0 1200 1200" style="enable-background:new 0 0 1200 1200;" xml:space="preserve">
<style type="text/css">
	.st0{fill:#4E909F;}
	.st1{fill:#C96D28;}
	.st2{fill:#D87A2C;}
	.st3{clip-path:url(#SVGID_2_);fill:#FFCC6A;}
	.st4{opacity:0.5;clip-path:url(#SVGID_5_);enable-background:new    ;}
	.st5{fill:#FFCC6A;}
	.st6{fill:#F58A1F;}
	.st7{clip-path:url(#SVGID_7_);fill:#FFCC6A;}
	.st8{fill:#9D5625;}
	.st9{opacity:0.2;enable-background:new    ;}
	.st10{opacity:0.2;clip-path:url(#SVGID_9_);enable-background:new    ;}
	.st11{opacity:0.2;clip-path:url(#SVGID_11_);enable-background:new    ;}
	.st12{opacity:0.5;enable-background:new    ;}
	.st13{fill:#E57D25;}
	.st14{fill:#2A2B2A;}
	.st15{fill:#212120;}
	.st16{fill:#D84B2D;}
	.st17{fill:#C8432C;}
	.st18{fill:#FFFFFF;}
</style>
<g>
	<g>
		<path class="st0" d="M502.9,521c-3.5-3.5-134.9,0-68.7,139.2c0,0,94.8-98.3,92.2-103.5s7-31.3,7-31.3L502.9,521z"/>
		<path class="st0" d="M523,562.8c0,0-29,5.8-27.5,1.3s-9.8-89.4-9.8-89.4l89.5,7.8l-25.3,84.9L523,562.8z"/>
		<path class="st1" d="M608,1080.4c0,8.8-18.1-222,179.6-315.4c0,0,27.2,123.7-38.3,315.1C749.3,1080.1,608,1077.1,608,1080.4z"/>
		<path class="st2" d="M524.9,537.3c0,0-204.2,137.7-204.2,547.5H607c0,0,4.5-360.4-0.1-361.9C602.2,721.3,524.9,537.3,524.9,537.3z
			"/>
		<g>
			<g>
				<defs>
					<path id="SVGID_1_" d="M524.9,532.8c0,0-204.2,137.7-204.2,547.5l286.8,4.9c0,0,4-365.3-0.6-366.8
						C602.2,716.9,524.9,532.8,524.9,532.8z"/>
				</defs>
				<clipPath id="SVGID_2_">
					<use xlink:href="#SVGID_1_"  style="overflow:visible;"/>
				</clipPath>
				<path class="st3" d="M605,542.2c0,0-158.6,129.2-193.8,546.2l237-3.7l76.3-356.6L605,542.2z"/>
			</g>
			<g>
				<defs>
					<path id="SVGID_4_" d="M524.9,532.8c0,0-204.2,137.7-204.2,547.5l286.8,4.9c0,0,4-365.3-0.6-366.8
						C602.2,716.9,524.9,532.8,524.9,532.8z"/>
				</defs>
				<clipPath id="SVGID_5_">
					<use xlink:href="#SVGID_4_"  style="overflow:visible;"/>
				</clipPath>
				<path class="st4" d="M410,1077.6l173.2,7.3l4.8-7.3c0,0-5.2-39.9-68.7-60.2C519.4,1017.4,456.9,1027.2,410,1077.6z"/>
			</g>
		</g>
		<path class="st5" d="M721.4,1084.8h193.7c0,0-5.4-31.2-69.1-61.6C845.9,1023.2,772.4,1029.3,721.4,1084.8z"/>
		<path class="st6" d="M320.7,1080.3c-1.5-4.6-29.4-116-91.3-173.2s-116-123.7-112.9-194.9c0,0,32.9,72.3,30.9,52.6
			c-1.5-15.5-54.1-184.1,109.8-281.5c0,0-24.7,94.3,7.7,145.4c0,0-4.6-37.1,7.7-72.7c0,0-6.2,60.3,15.5,91.3
			c21.7,30.9,29.4,91.3,29.4,91.3s-10.8-52.6-4.6-85.1c0,0,12.4,41.8,23.2,65c10.8,23.2,29.4,126.8,18.6,187.1
			C343.9,965.9,320.7,1080.3,320.7,1080.3z"/>
		<g>
			<g>
				<path id="SVGID_3_" class="st2" d="M320.7,1080.3c-1.5-4.6-29.4-116-91.3-173.2s-116-123.7-112.9-194.9c0,0,32.9,72.3,30.9,52.6
					c-1.5-15.5-52.9-186,111.1-283.5c0,0-26,96.3,6.5,147.3c0,0-4.6-37.1,7.7-72.7c0,0-6.2,60.3,15.5,91.3
					c21.7,30.9,29.4,91.3,29.4,91.3s-10.8-52.6-4.6-85.1c0,0,12.4,41.8,23.2,65c10.8,23.2,29.4,126.8,18.6,187.1
					C343.9,965.9,320.7,1080.3,320.7,1080.3z"/>
			</g>
			<g>
				<defs>
					<path id="SVGID_6_" d="M320.7,1080.3c-1.5-4.6-29.4-116-91.3-173.2s-116-123.7-112.9-194.9c0,0,32.9,72.3,30.9,52.6
						c-1.5-15.5-52.9-186,111.1-283.5c0,0-26,96.3,6.5,147.3c0,0-4.6-37.1,7.7-72.7c0,0-6.2,60.3,15.5,91.3
						c21.7,30.9,29.4,91.3,29.4,91.3s-10.8-52.6-4.6-85.1c0,0,12.4,41.8,23.2,65c10.8,23.2,29.4,126.8,18.6,187.1
						C343.9,965.9,320.7,1080.3,320.7,1080.3z"/>
				</defs>
				<clipPath id="SVGID_7_">
					<use xlink:href="#SVGID_6_"  style="overflow:visible;"/>
				</clipPath>
				<path class="st7" d="M79.4,658.1c0,0-21.7,103.6,38.7,151.6c60.3,47.9,119.1,54.1,119.1,54.1s-69.6-72.7-68.1-137.7
					s21.7-86.6,21.7-86.6s4.6,88.2,34,116s82,57.2,82,57.2s-37.8-28.1-41-65.1c-3.7-43,8.5-49.3,8.5-49.3s-6.2,29.4,20.1,54.1
					c26.3,24.7,60.3,52.6,65,111.4s0,78.9,0,78.9s51-78.9,65-145.4S463,628.7,446,591.6c-17-37.1-86.6-163.9-97.4-171.7
					c-10.8-7.7-65-21.7-69.6-20.1s-109.8,61.9-126.8,92.8C135.1,523.5,79.4,658.1,79.4,658.1z"/>
			</g>
		</g>
		<path class="st2" d="M348.5,1084.8c-0.1-0.7-0.2,0.2-0.4-0.9c-4.2-17.6-33.3-240.4,191.5-341.9c0,0,96.3,99.4-57.2,342.8
			C482.4,1084.8,365,1084.8,348.5,1084.8z"/>
		<path class="st8" d="M893,1085c0,0,0-0.3,0-0.7c0-0.2,0-0.5,0-0.8s0-0.7-0.1-1.1s-0.1-0.9-0.2-1.4c-0.1-0.5-0.2-1-0.3-1.6
			s-0.2-1.2-0.4-1.8c-0.2-0.6-0.3-1.3-0.5-2s-0.4-1.4-0.6-2.2c-0.2-0.8-0.5-1.5-0.8-2.3c-0.5-1.6-1.2-3.2-1.9-4.9
			c-0.3-0.9-0.8-1.7-1.2-2.6s-0.8-1.7-1.2-2.6c-0.5-0.9-0.9-1.7-1.4-2.6l-0.7-1.3l-0.8-1.3c-1-1.7-2-3.4-3.1-5
			c-0.5-0.8-1.1-1.6-1.6-2.4c-0.3-0.4-0.5-0.8-0.8-1.2c-0.3-0.4-0.6-0.7-0.9-1.1c-1.1-1.5-2.2-2.9-3.3-4.2c-1.1-1.3-2.1-2.5-3.1-3.7
			c-0.5-0.6-0.9-1.1-1.4-1.6s-0.9-1-1.3-1.4c-0.8-0.9-1.6-1.6-2.2-2.3c-1.2-1.3-1.9-2-1.9-2s0.7,0.7,2,1.9c0.6,0.6,1.4,1.3,2.3,2.2
			c0.4,0.4,0.9,0.9,1.4,1.3c0.5,0.5,1,1,1.5,1.6c1,1.1,2.1,2.3,3.3,3.5c1.1,1.3,2.3,2.7,3.5,4.1c0.3,0.4,0.6,0.7,0.9,1.1
			c0.3,0.4,0.6,0.8,0.9,1.1c0.6,0.8,1.2,1.5,1.8,2.3c1.2,1.5,2.3,3.2,3.4,4.9l0.8,1.2l0.8,1.3c0.5,0.9,1,1.7,1.5,2.6
			c0.5,0.8,0.9,1.7,1.4,2.6c0.4,0.9,0.9,1.7,1.3,2.6c0.8,1.7,1.6,3.4,2.2,5c0.3,0.8,0.7,1.6,0.9,2.4c0.3,0.8,0.5,1.5,0.8,2.2
			s0.4,1.4,0.6,2.1c0.2,0.7,0.4,1.3,0.5,1.9s0.3,1.2,0.4,1.7c0.1,0.5,0.2,1,0.3,1.5c0.1,0.4,0.1,0.9,0.2,1.2
			c0.1,0.3,0.1,0.7,0.1,0.9c0,0.5,0.1,0.8,0.1,0.8L893,1085z"/>
		<path class="st8" d="M821.8,1085c0,0,0-0.2,0-0.6c0-0.3,0-0.9-0.1-1.6c0-0.4-0.1-0.8-0.1-1.2c-0.1-0.4-0.1-0.9-0.2-1.4
			c-0.1-0.5-0.2-1-0.3-1.6s-0.2-1.2-0.4-1.8c-0.3-1.2-0.6-2.6-1.1-4c-0.4-1.4-0.9-2.8-1.5-4.4c-0.3-0.8-0.6-1.5-0.9-2.3
			c-0.3-0.8-0.6-1.5-1-2.3s-0.7-1.5-1.1-2.3c-0.4-0.8-0.7-1.5-1.2-2.3c-0.4-0.8-0.8-1.5-1.2-2.3l-0.6-1.1c-0.2-0.4-0.4-0.7-0.7-1.1
			c-0.4-0.7-0.9-1.4-1.3-2.1c-0.2-0.4-0.4-0.7-0.6-1.1c-0.2-0.3-0.5-0.7-0.7-1c-0.9-1.3-1.8-2.6-2.6-3.8c-0.9-1.2-1.7-2.3-2.5-3.3
			c-0.4-0.5-0.8-1-1.1-1.5c-0.4-0.5-0.7-0.9-1.1-1.3c-0.7-0.8-1.3-1.5-1.8-2.1c-1-1.2-1.5-1.8-1.5-1.8s0.6,0.6,1.6,1.7
			c0.5,0.5,1.2,1.2,1.9,2c0.4,0.4,0.7,0.8,1.2,1.2c0.4,0.4,0.8,0.9,1.2,1.4c0.8,1,1.8,2.1,2.7,3.2c0.9,1.2,1.9,2.4,2.9,3.7
			c0.2,0.3,0.5,0.6,0.7,1c0.2,0.3,0.5,0.7,0.7,1c0.5,0.7,1,1.4,1.5,2.1c0.2,0.4,0.5,0.7,0.7,1.1l0.7,1.1c0.5,0.7,0.9,1.5,1.4,2.2
			s0.9,1.5,1.3,2.3c0.4,0.8,0.8,1.5,1.3,2.3c0.4,0.8,0.8,1.5,1.1,2.3c0.4,0.8,0.8,1.5,1.1,2.3c0.6,1.5,1.3,3,1.8,4.4
			c0.6,1.4,1,2.8,1.4,4.1c0.2,0.6,0.3,1.3,0.5,1.8c0.2,0.6,0.3,1.1,0.4,1.7c0.1,0.5,0.2,1,0.3,1.5s0.2,0.9,0.2,1.3
			c0.1,0.8,0.2,1.4,0.2,1.9s0,0.7,0,0.7L821.8,1085z"/>
		<path class="st9" d="M403.4,1084.8c0,0,51.9-87.3,65.3-228.7"/>
		<path class="st0" d="M505.7,523.7c-3.3-1.3-84.4-24.4-139.8-23.1c0,0,25.7-30.3,63.3-41.5c0,0,56.7,9.9,82.4,52.8L505.7,523.7z"/>
		<g>
			<path class="st2" d="M696.8,1085c1.9-7.5-43.5-434.6-44.8-435.6c0,0,121.1,121.6,125,118.7c19.4-14.5-52.6,310.9-52.6,310.9
				L696.8,1085z"/>
			<g>
				<g>
					<defs>
						<path id="SVGID_8_" d="M696.8,1085c1.9-7.5-43.5-434.6-44.8-435.6c0,0,121.1,121.6,125,118.7c19.4-14.5-52.6,310.9-52.6,310.9
							L696.8,1085z"/>
					</defs>
					<clipPath id="SVGID_9_">
						<use xlink:href="#SVGID_8_"  style="overflow:visible;"/>
					</clipPath>
					<path class="st10" d="M638.4,694.6c0,0,29,41.2,46.1,58.4l24.2,349.3c0,0,5.1,3.1,7-5.5s36.7-266.5,36.7-266.5
						s20.6,47.5,23.4,48.4c2.9,1,31.4-120.5,28.5-124.3S656.7,600.2,656.7,600.2L638.4,694.6z"/>
				</g>
			</g>
			<g>
				<path class="st5" d="M696.8,1085h193.7c0,0-5.4-31.2-69.1-61.6C821.3,1023.4,747.8,1029.5,696.8,1085z"/>
				<path class="st8" d="M863,1085.2c0,0,0-0.3,0-0.7c0-0.2,0-0.5,0-0.8s0-0.7-0.1-1.1s-0.1-0.9-0.2-1.4c-0.1-0.5-0.2-1-0.3-1.6
					s-0.2-1.2-0.4-1.8c-0.2-0.6-0.3-1.3-0.5-2s-0.4-1.4-0.6-2.2c-0.2-0.8-0.5-1.5-0.8-2.3c-0.5-1.6-1.2-3.2-1.9-4.9
					c-0.3-0.9-0.8-1.7-1.2-2.6s-0.8-1.7-1.2-2.6c-0.5-0.9-0.9-1.7-1.4-2.6l-0.7-1.3l-0.8-1.3c-1-1.7-2-3.4-3.1-5
					c-0.5-0.8-1.1-1.6-1.6-2.4c-0.3-0.4-0.5-0.8-0.8-1.2c-0.3-0.4-0.6-0.7-0.9-1.1c-1.1-1.5-2.2-2.9-3.3-4.2
					c-1.1-1.3-2.1-2.5-3.1-3.7c-0.5-0.6-0.9-1.1-1.4-1.6s-0.9-1-1.3-1.4c-0.8-0.9-1.6-1.6-2.2-2.3c-1.2-1.3-1.9-2-1.9-2
					s0.7,0.7,2,1.9c0.6,0.6,1.4,1.3,2.3,2.2c0.4,0.4,0.9,0.9,1.4,1.3c0.5,0.5,1,1,1.5,1.6c1,1.1,2.1,2.3,3.3,3.5
					c1.1,1.3,2.3,2.7,3.5,4.1c0.3,0.4,0.6,0.7,0.9,1.1c0.3,0.4,0.6,0.8,0.9,1.1c0.6,0.8,1.2,1.5,1.8,2.3c1.2,1.5,2.3,3.2,3.4,4.9
					l0.8,1.2l0.8,1.3c0.5,0.9,1,1.7,1.5,2.6c0.5,0.8,0.9,1.7,1.4,2.6c0.4,0.9,0.9,1.7,1.3,2.6c0.8,1.7,1.6,3.4,2.2,5
					c0.3,0.8,0.7,1.6,0.9,2.4c0.3,0.8,0.5,1.5,0.8,2.2s0.4,1.4,0.6,2.1c0.2,0.7,0.4,1.3,0.5,1.9s0.3,1.2,0.4,1.7
					c0.1,0.5,0.2,1,0.3,1.5c0.1,0.4,0.1,0.9,0.2,1.2c0.1,0.3,0.1,0.7,0.1,0.9c0,0.5,0.1,0.8,0.1,0.8L863,1085.2z"/>
				<path class="st8" d="M791.8,1085.2c0,0,0-0.2,0-0.6c0-0.3,0-0.9-0.1-1.6c0-0.4-0.1-0.8-0.1-1.2c-0.1-0.4-0.1-0.9-0.2-1.4
					c-0.1-0.5-0.2-1-0.3-1.6s-0.2-1.2-0.4-1.8c-0.3-1.2-0.6-2.6-1.1-4c-0.4-1.4-0.9-2.8-1.5-4.4c-0.3-0.8-0.6-1.5-0.9-2.3
					c-0.3-0.8-0.6-1.5-1-2.3s-0.7-1.5-1.1-2.3c-0.4-0.8-0.7-1.5-1.2-2.3c-0.4-0.8-0.8-1.5-1.2-2.3l-0.6-1.1
					c-0.2-0.4-0.4-0.7-0.7-1.1c-0.4-0.7-0.9-1.4-1.3-2.1c-0.2-0.4-0.4-0.7-0.6-1.1c-0.2-0.3-0.5-0.7-0.7-1c-0.9-1.3-1.8-2.6-2.6-3.8
					c-0.9-1.2-1.7-2.3-2.5-3.3c-0.4-0.5-0.8-1-1.1-1.5c-0.4-0.5-0.7-0.9-1.1-1.3c-0.7-0.8-1.3-1.5-1.8-2.1c-1-1.2-1.5-1.8-1.5-1.8
					s0.6,0.6,1.6,1.7c0.5,0.5,1.2,1.2,1.9,2c0.4,0.4,0.7,0.8,1.2,1.2c0.4,0.4,0.8,0.9,1.2,1.4c0.8,1,1.8,2.1,2.7,3.2
					c0.9,1.2,1.9,2.4,2.9,3.7c0.2,0.3,0.5,0.6,0.7,1c0.2,0.3,0.5,0.7,0.7,1c0.5,0.7,1,1.4,1.5,2.1c0.2,0.4,0.5,0.7,0.7,1.1l0.7,1.1
					c0.5,0.7,0.9,1.5,1.4,2.2s0.9,1.5,1.3,2.3c0.4,0.8,0.8,1.5,1.3,2.3c0.4,0.8,0.8,1.5,1.1,2.3c0.4,0.8,0.8,1.5,1.1,2.3
					c0.6,1.5,1.3,3,1.8,4.4c0.6,1.4,1,2.8,1.4,4.1c0.2,0.6,0.3,1.3,0.5,1.8c0.2,0.6,0.3,1.1,0.4,1.7c0.1,0.5,0.2,1,0.3,1.5
					s0.2,0.9,0.2,1.3c0.1,0.8,0.2,1.4,0.2,1.9s0,0.7,0,0.7L791.8,1085.2z"/>
			</g>
			<g>
				<path class="st2" d="M581.8,1084.8c1.9-7.5-43.5-434.6-44.8-435.6c0,0,121.1,121.6,125,118.7c19.4-14.5-52.6,310.9-52.6,310.9
					L581.8,1084.8z"/>
				<g>
					<g>
						<defs>
							<path id="SVGID_10_" d="M581.8,1084.8c1.9-7.5-43.5-434.6-44.8-435.6c0,0,121.1,121.6,125,118.7
								c19.4-14.5-52.6,310.9-52.6,310.9L581.8,1084.8z"/>
						</defs>
						<clipPath id="SVGID_11_">
							<use xlink:href="#SVGID_10_"  style="overflow:visible;"/>
						</clipPath>
						<path class="st11" d="M523.4,694.4c0,0,29,41.2,46.1,58.4l24.2,349.3c0,0,5.1,3.1,7-5.5s36.7-266.5,36.7-266.5
							s20.6,47.5,23.4,48.4c2.9,1,31.4-120.5,28.5-124.3S541.7,600,541.7,600L523.4,694.4z"/>
					</g>
				</g>
				<g>
					<path class="st5" d="M581.8,1084.8h193.7c0,0-5.4-31.2-69.1-61.6C706.3,1023.2,632.8,1029.3,581.8,1084.8z"/>
					<path class="st8" d="M748,1085c0,0,0-0.3,0-0.7c0-0.2,0-0.5,0-0.8s0-0.7-0.1-1.1s-0.1-0.9-0.2-1.4c-0.1-0.5-0.2-1-0.3-1.6
						s-0.2-1.2-0.4-1.8c-0.2-0.6-0.3-1.3-0.5-2s-0.4-1.4-0.6-2.2c-0.2-0.8-0.5-1.5-0.8-2.3c-0.5-1.6-1.2-3.2-1.9-4.9
						c-0.3-0.9-0.8-1.7-1.2-2.6s-0.8-1.7-1.2-2.6c-0.5-0.9-0.9-1.7-1.4-2.6l-0.7-1.3l-0.8-1.3c-1-1.7-2-3.4-3.1-5
						c-0.5-0.8-1.1-1.6-1.6-2.4c-0.3-0.4-0.5-0.8-0.8-1.2c-0.3-0.4-0.6-0.7-0.9-1.1c-1.1-1.5-2.2-2.9-3.3-4.2
						c-1.1-1.3-2.1-2.5-3.1-3.7c-0.5-0.6-0.9-1.1-1.4-1.6s-0.9-1-1.3-1.4c-0.8-0.9-1.6-1.6-2.2-2.3c-1.2-1.3-1.9-2-1.9-2
						s0.7,0.7,2,1.9c0.6,0.6,1.4,1.3,2.3,2.2c0.4,0.4,0.9,0.9,1.4,1.3c0.5,0.5,1,1,1.5,1.6c1,1.1,2.1,2.3,3.3,3.5
						c1.1,1.3,2.3,2.7,3.5,4.1c0.3,0.4,0.6,0.7,0.9,1.1c0.3,0.4,0.6,0.8,0.9,1.1c0.6,0.8,1.2,1.5,1.8,2.3c1.2,1.5,2.3,3.2,3.4,4.9
						l0.8,1.2l0.8,1.3c0.5,0.9,1,1.7,1.5,2.6c0.5,0.8,0.9,1.7,1.4,2.6c0.4,0.9,0.9,1.7,1.3,2.6c0.8,1.7,1.6,3.4,2.2,5
						c0.3,0.8,0.7,1.6,0.9,2.4c0.3,0.8,0.5,1.5,0.8,2.2s0.4,1.4,0.6,2.1c0.2,0.7,0.4,1.3,0.5,1.9s0.3,1.2,0.4,1.7
						c0.1,0.5,0.2,1,0.3,1.5c0.1,0.4,0.1,0.9,0.2,1.2c0.1,0.3,0.1,0.7,0.1,0.9c0,0.5,0.1,0.8,0.1,0.8L748,1085z"/>
					<path class="st8" d="M676.8,1085c0,0,0-0.2,0-0.6c0-0.3,0-0.9-0.1-1.6c0-0.4-0.1-0.8-0.1-1.2c-0.1-0.4-0.1-0.9-0.2-1.4
						c-0.1-0.5-0.2-1-0.3-1.6s-0.2-1.2-0.4-1.8c-0.3-1.2-0.6-2.6-1.1-4c-0.4-1.4-0.9-2.8-1.5-4.4c-0.3-0.8-0.6-1.5-0.9-2.3
						c-0.3-0.8-0.6-1.5-1-2.3s-0.7-1.5-1.1-2.3c-0.4-0.8-0.7-1.5-1.2-2.3c-0.4-0.8-0.8-1.5-1.2-2.3l-0.6-1.1
						c-0.2-0.4-0.4-0.7-0.7-1.1c-0.4-0.7-0.9-1.4-1.3-2.1c-0.2-0.4-0.4-0.7-0.6-1.1c-0.2-0.3-0.5-0.7-0.7-1
						c-0.9-1.3-1.8-2.6-2.6-3.8c-0.9-1.2-1.7-2.3-2.5-3.3c-0.4-0.5-0.8-1-1.1-1.5c-0.4-0.5-0.7-0.9-1.1-1.3
						c-0.7-0.8-1.3-1.5-1.8-2.1c-1-1.2-1.5-1.8-1.5-1.8s0.6,0.6,1.6,1.7c0.5,0.5,1.2,1.2,1.9,2c0.4,0.4,0.7,0.8,1.2,1.2
						c0.4,0.4,0.8,0.9,1.2,1.4c0.8,1,1.8,2.1,2.7,3.2c0.9,1.2,1.9,2.4,2.9,3.7c0.2,0.3,0.5,0.6,0.7,1c0.2,0.3,0.5,0.7,0.7,1
						c0.5,0.7,1,1.4,1.5,2.1c0.2,0.4,0.5,0.7,0.7,1.1l0.7,1.1c0.5,0.7,0.9,1.5,1.4,2.2s0.9,1.5,1.3,2.3c0.4,0.8,0.8,1.5,1.3,2.3
						c0.4,0.8,0.8,1.5,1.1,2.3c0.4,0.8,0.8,1.5,1.1,2.3c0.6,1.5,1.3,3,1.8,4.4c0.6,1.4,1,2.8,1.4,4.1c0.2,0.6,0.3,1.3,0.5,1.8
						c0.2,0.6,0.3,1.1,0.4,1.7c0.1,0.5,0.2,1,0.3,1.5s0.2,0.9,0.2,1.3c0.1,0.8,0.2,1.4,0.2,1.9s0,0.7,0,0.7L676.8,1085z"/>
				</g>
			</g>
		</g>
		<path class="st9" d="M439.5,848.3c24.2-90.5,59.3-186.5,107.9-247.2L531.8,557c0,0-135.1,130.8-173.3,389.5
			c-0.8-1.9-1.5-3.7-2.4-5.4c-10.6-21.2-20.2-87.5-19.2-125.1c1-37.5-18.3-94.3-18.3-94.3c4.8,23.1-1.9,53.9-1.9,53.9
			c-1.9-27.9-24.1-75-32.7-89.5c-8.7-14.4-16.4-37.5-16.4-37.5c-1,24.1,6.7,49.6,6.7,49.6s-23.1-13-37.5-54.4s-12.5-98.1-12.5-98.1
			s-44.3,54.8-45.2,124.1c-1,69.3,24.1,124.1,24.1,124.1c-10.6-9.6-33.7-36.6-33.7-36.6s7.7,40.4,26.9,75s59.6,65.4,95.2,97.1
			c35.6,31.7,56.8,152.6,56.9,155.2h12.1h32.9H446c103.9-210.1,75.3-299.1,75.3-299.1C487.6,803.8,460.7,825.2,439.5,848.3z"/>
		<polygon class="st12" points="548.9,755.3 564,898.1 561.1,909.3 542.8,746.4 		"/>
		<g>
			<path class="st5" d="M402.8,1084.8h178.1c0,0-5-28.7-63.6-56.6C517.3,1028.2,449.7,1033.9,402.8,1084.8z"/>
			<path class="st8" d="M558,1085.2c0,0,0-0.2,0-0.6s-0.1-1-0.1-1.7c0-0.4-0.1-0.8-0.2-1.3c-0.1-0.5-0.2-1-0.3-1.5s-0.2-1.1-0.3-1.7
				s-0.2-1.2-0.4-1.9c-0.2-0.6-0.4-1.3-0.6-2c-0.2-0.7-0.5-1.4-0.7-2.1c-0.5-1.5-1.1-3-1.7-4.5c-0.3-0.8-0.7-1.6-1.1-2.3
				c-0.4-0.8-0.7-1.6-1.1-2.4c-0.4-0.8-0.8-1.6-1.3-2.4l-0.6-1.2l-0.7-1.2c-0.9-1.5-1.8-3.1-2.9-4.6c-0.5-0.7-1-1.5-1.5-2.2
				c-0.2-0.4-0.5-0.7-0.7-1.1c-0.3-0.3-0.5-0.7-0.8-1c-1-1.4-2-2.7-3-3.9c-1-1.2-2-2.3-2.9-3.4c-0.4-0.5-0.9-1-1.3-1.5
				c-0.4-0.5-0.8-0.9-1.2-1.3c-0.8-0.8-1.4-1.5-2-2.1c-1.1-1.2-1.7-1.8-1.7-1.8s0.7,0.6,1.8,1.7c0.6,0.6,1.3,1.2,2.1,2
				c0.4,0.4,0.8,0.8,1.3,1.2c0.4,0.5,0.9,0.9,1.4,1.4c0.9,1,2,2.1,3.1,3.2c1,1.2,2.1,2.5,3.2,3.8c0.3,0.3,0.6,0.7,0.8,1
				c0.3,0.3,0.5,0.7,0.8,1c0.5,0.7,1.1,1.4,1.6,2.1c1.1,1.4,2.1,3,3.2,4.5l0.8,1.1l0.7,1.2c0.5,0.8,0.9,1.6,1.4,2.4s0.9,1.6,1.3,2.4
				c0.4,0.8,0.9,1.6,1.2,2.3c0.7,1.6,1.5,3.1,2,4.6c0.3,0.7,0.6,1.5,0.8,2.2s0.5,1.4,0.7,2.1s0.4,1.3,0.6,1.9
				c0.2,0.6,0.3,1.2,0.5,1.8c0.1,0.6,0.3,1.1,0.4,1.6c0.1,0.5,0.2,0.9,0.2,1.4c0.1,0.4,0.1,0.8,0.2,1.1c0,0.3,0.1,0.6,0.1,0.9
				c0,0.5,0.1,0.7,0.1,0.7L558,1085.2z"/>
			<path class="st8" d="M492.5,1085.2c0,0,0-0.2,0-0.5s0-0.8-0.1-1.5s-0.2-1.5-0.3-2.4c-0.1-0.5-0.2-1-0.3-1.5
				c-0.1-0.5-0.2-1.1-0.3-1.6c-0.3-1.1-0.6-2.4-1-3.6c-0.4-1.3-0.9-2.6-1.4-4c-0.2-0.7-0.6-1.4-0.8-2.1c-0.3-0.7-0.6-1.4-0.9-2.1
				s-0.7-1.4-1-2.1s-0.7-1.4-1.1-2.1s-0.7-1.4-1.1-2.1l-0.6-1c-0.2-0.3-0.4-0.7-0.6-1c-0.4-0.7-0.8-1.3-1.2-2
				c-0.4-0.7-0.8-1.3-1.2-1.9c-0.8-1.2-1.6-2.4-2.4-3.5s-1.6-2.1-2.3-3.1c-0.4-0.5-0.7-0.9-1-1.4c-0.3-0.4-0.7-0.8-1-1.2
				c-0.6-0.7-1.2-1.4-1.6-1.9c-0.9-1.1-1.4-1.7-1.4-1.7s0.5,0.6,1.5,1.6c0.5,0.5,1.1,1.1,1.7,1.8c0.3,0.4,0.7,0.7,1.1,1.1
				s0.7,0.8,1.1,1.3c0.8,0.9,1.6,1.9,2.5,2.9c0.8,1.1,1.7,2.2,2.7,3.4c0.5,0.6,0.9,1.2,1.3,1.8c0.4,0.6,0.9,1.3,1.3,1.9
				c0.2,0.3,0.5,0.6,0.7,1l0.6,1c0.4,0.7,0.8,1.4,1.3,2c0.4,0.7,0.8,1.4,1.2,2.1c0.4,0.7,0.8,1.4,1.2,2.1c0.4,0.7,0.7,1.4,1.1,2.1
				c0.3,0.7,0.7,1.4,1,2.1c0.6,1.4,1.2,2.7,1.7,4s0.9,2.6,1.3,3.7c0.2,0.6,0.3,1.2,0.5,1.7c0.1,0.5,0.3,1.1,0.4,1.5
				c0.2,1,0.4,1.8,0.5,2.6c0.1,0.7,0.2,1.3,0.2,1.7c0,0.4,0,0.6,0,0.6L492.5,1085.2z"/>
		</g>
		<path class="st0" d="M510.3,530.4c0,0-4,135.5,65.1,205.8s106,119.8,111.3,279.2c0,0,120.9-41.9,178.1-235.3
			c50.6-171.2-11.6-252.4-11.6-252.4l-224.8-46.4C628.5,481.2,582,487.9,510.3,530.4z"/>
		<path class="st9" d="M819.1,676.2L570.2,493.7l-72.6-8l0.5,15.5l-68.3-28.8l-39.5,18.2l107.8,19.8l0.3,14.9
			c0,0-37.5,5.2-59.9,34.5c-9.9,13-11.8,28.7-10.9,42.2c19.8-19.4,45.6-44.6,45.6-44.6l-43,61.5c2,8.4,4.3,13.8,4.3,13.8l64.2-92.5
			l23.5-3.2c0,0-1.3,55.9,12.7,92.2c14,36.4,57.2,99.9,83.3,124.3c32.9,30.8,69.5,51.6,79.4,113.6s3.3,74.4,3.3,74.4
			s33-45.4,39.7-83.4c0,0-13.2,85.9-37.2,110.7c0,0,74.4-11.6,107.4-111.5C843.9,757.2,819.1,676.2,819.1,676.2z"/>
		<g>
			<path class="st13" d="M751.1,243.9c0,0,43.4-71.4,95.8-115.7c0,0-7.5,228.2-31.6,188C812.5,311.6,751.1,243.9,751.1,243.9z"/>
			<path class="st9" d="M818.4,167.9c0,0-0.3,0.5-1,1.3c-9,12.1-77.9,104.7-76.9,104.4c1.1-0.4,61.6,53.9,63.7,46.1
				C806.4,312,818.4,167.9,818.4,167.9z"/>
			<path class="st2" d="M594.2,104c-7.5,46.8-32.5,164.5-32.5,164.5l-18.5-4.9l17.6,9.8l-32.2,24.4l33.2-7.8l-15.6,133.7
				c0,0,161.8,0.8,239-12.7c90.5-15.8,98.3-46.3,95.6-46.8c-4.9-1-25.4-27.3-35.1-42.9c-9.8-15.6-35.1-48.8-42.9-53.7
				c-7.8-4.9-13.7-9.8-13.7-9.8l32.2,6.8l-45.9-19.5l38.1,2l-56.6-12.7l-76.6-5.4C680.3,229,626,144.6,594.2,104z"/>
			<path class="st5" d="M701.8,382.1c0,0-110.6-59.6-142.6,22.5c0,0-54.4,13.8-63.1,102c0,0,11.2-38.9,82.1-67.4
				c0,0-102,84.7,19,210.8c0,0,44.1,35.4,83.8,63.1c39.7,27.7,62.2,48.4,45.8,102c0,0,36.3-28.5,19-108.9c0,0,82.1,86.4,14.7,192.7
				c0,0,121.8-17.3,149.5-114.1s4.3-152.1-12.1-200.5c0,0,23.3-19.9,50.1-96.8c0,0,41.5-5.2,52.7-28.5s26.3-72.6,26.3-72.6
				s-84.6,12.7-109.6,0.6c-25.1-12.1-57.5-46.4-57.5-46.4s-18.1,38.9-38.9,41.5s-50.1-14.7-51-40.6s9.5-40.6-3.5-60.5
				s-32-27.5-32-27.5s22.4,28.6,9.4,33.8c-13,5.2-39.4-1.1-39.4-1.1s19.4,6.1,42.8,33.1c15,17.3,22.7,58.8,4.2,67.7
				C734.7,395.1,730.3,394.2,701.8,382.1z"/>
			<circle class="st14" cx="841.3" cy="462.3" r="2.2"/>
			<circle class="st14" cx="819.6" cy="443.4" r="3.1"/>
			<circle class="st14" cx="850.4" cy="442.4" r="2.3"/>
			<circle class="st14" cx="847.8" cy="420" r="1.5"/>
			<circle class="st14" cx="870.3" cy="422.7" r="1.5"/>
			<path class="st15" d="M924.3,389.4c0,0,18,37.6,45.5,55.4c0,0,31.2-18.6,42.9-56.2C1012.7,388.6,955.8,391.1,924.3,389.4z"/>
			<polygon class="st5" points="650.1,250 613.4,238.3 639.8,242.2 615.4,225.6 659.3,238.3 603.1,135.7 579.3,262.7 			"/>
			<path class="st2" d="M577.6,275.3c-4.8-0.4-37.2-6.1-53.9,6.1c0,0,32-3.1,57.8,0.4L577.6,275.3z"/>
			<path class="st2" d="M620.3,246.5c0,0,50.3,6.9,35.6,3.2C654.6,249.3,633.3,246.2,620.3,246.5z"/>
		</g>
		<path class="st9" d="M948.9,394.7c-9.9,0.5-44.1,1.9-64.5,0.6c-2-0.6-3.8-1.3-5.4-2.2c-19.1-10.7-43.8-40.9-44-40.5
			c-4-6.1-7.9-12.6-10.6-17.7c-2.6-4.8-6.6-11.5-11-18.4c1.2-6.1,2.4-13.5,3.4-21.7L775.2,273l15.2-7.3c0,0-31.6-8.5-33.4-7.6
			l-36.2-3.6l-58.3-4.8c0,0-39.7-61.2-63.9-97.1c-8.5,37.8-31,119.2-31,119.2l-6.8-2.2l13.4,8.6l-0.3,0.3c-7-3.4-16.9-3.6-26.9-1
			c0,0,10.1,0.4,20,3.8l-20.1,9.3l27.2-4.8l-12.5,124c-12.7,11.4-34.6,18.9-39.3,49.9c0,0,29.6-34.6,62.5-23.8
			c0,0-60.5,98.4,14.5,186.8c38.1,39.4,48.7,36.3,79,60.7c30.3,24.5,66.3,39.9,53.8,87.4c0,0,20.8-25.7-6.7-97.2
			c0,0,112.4,78.2,61.1,172.3c0,0,49.8-21.2,70.9-107c21.1-85.7-16.6-131.7-29.1-174.5c0,0,17.7-17.5,38-85.3
			c1-0.3,67.9-13.9,103.4-43.5c24.2-20.2,23.9-42.4,23.9-42.4S957.1,393.6,948.9,394.7z"/>
	</g>
	<g>
		<g>
			<path class="st16" d="M746.6,478c0,0-32.7,17.3-43.6,59.7c-10.9,42.3-6.4,90.5,25.7,105.9c32.1,15.4,53.9-4.5,60.3-30.2
				c6.4-25.7-5.8-53.2-5.1-71.2c0.6-18,20.5-40.9,28.2-48.8C808.2,496,760.8,486.4,746.6,478z"/>
			<path class="st17" d="M769.1,485.7c0,0-1.3,1.2-3.2,3.6c-1.9,2.3-4.6,5.8-7.4,10.1c-1.4,2.2-2.8,4.6-4.2,7.1
				c-1.4,2.6-2.7,5.4-4,8.3c-1.2,2.9-2.4,6-3.4,9.2s-1.9,6.4-2.7,9.7c-0.3,1.7-0.7,3.3-1,5c-0.2,1.7-0.6,3.3-0.8,5
				c-0.1,0.8-0.2,1.7-0.3,2.5s-0.2,1.6-0.3,2.5c-0.1,1.6-0.3,3.2-0.4,4.8c-0.1,1.6-0.2,3.2-0.2,4.7s0,3.1-0.1,4.5
				c0,1.5,0.1,2.9,0.1,4.3c0,0.7,0,1.4,0,2.1c0,0.7,0.1,1.3,0.1,2c0.1,1.3,0.1,2.5,0.2,3.7c0,1.2,0.2,2.3,0.3,3.4
				c0.2,2.1,0.3,4,0.4,5.5c0.2,1.5,0.2,2.7,0.3,3.6c0.1,0.8,0.1,1.3,0.1,1.3s-0.2-0.4-0.4-1.2c-0.3-0.8-0.7-1.9-1.2-3.4
				s-1.1-3.3-1.6-5.3c-0.3-1-0.6-2.1-0.9-3.3c-0.3-1.2-0.5-2.4-0.8-3.7c-0.1-0.7-0.3-1.3-0.4-2c-0.1-0.7-0.2-1.4-0.3-2.1
				c-0.2-1.4-0.4-2.9-0.6-4.4c-0.1-1.5-0.3-3.1-0.4-4.7c-0.1-1.6-0.1-3.3-0.2-4.9c0-3.4,0.1-6.8,0.5-10.4c0.1-1.8,0.4-3.5,0.7-5.3
				s0.7-3.5,1-5.3c0.5-1.7,0.8-3.5,1.4-5.2c0.5-1.7,1-3.4,1.7-5.1c0.3-0.8,0.6-1.7,0.9-2.5c0.3-0.8,0.7-1.6,1-2.4
				c0.7-1.6,1.5-3.1,2.2-4.7c1.6-3,3.2-5.8,5-8.3c1.7-2.5,3.5-4.9,5.3-6.9s3.5-3.8,5.1-5.2c1.6-1.5,3.1-2.6,4.3-3.6
				c1.2-0.9,2.3-1.6,3-2C768.7,485.9,769.1,485.7,769.1,485.7z"/>
		</g>
		<g>
			<path class="st18" d="M695.8,451.2c-2.4,2.7-4.5,6.1-6,10c-4.6,11.9-2,24.1,5.9,27.1s17.9-4.2,22.6-16.1c0.9-2.4,1.5-4.7,1.9-7.1
				C710.4,460.2,702.2,455.4,695.8,451.2z"/>
			<path class="st18" d="M760.9,482.2c-1.1,2.4-1.9,5-2.5,7.7c-2.4,12.6,2.3,24,10.5,25.6c8.3,1.6,16.9-7.3,19.4-19.8
				c0.4-1.9,0.6-3.8,0.6-5.6C779,487.8,769.6,485.1,760.9,482.2z"/>
			<path class="st18" d="M841.1,497.9c-0.4,1.7-0.7,3.5-0.9,5.4c-1.1,12.7,4.8,23.7,13.1,24.4c8.4,0.7,16.1-9,17.2-21.7
				c0.2-2.6,0.2-5.1-0.2-7.5C860.3,498.6,850.5,498.4,841.1,497.9z"/>
			<path class="st18" d="M936.7,490c-9.9,2.2-19.5,4-28.9,5.3c-0.1,1.4-0.2,2.9-0.1,4.5c0.5,12.8,7.7,22.9,16.1,22.6
				c8.4-0.3,14.8-10.9,14.4-23.7C938,495.5,937.5,492.6,936.7,490z"/>
		</g>
		<path class="st8" d="M654.5,417.7c0,0,0.9,1,2.8,2.8c1.9,1.8,4.7,4.3,8.3,7.4c3.7,3.1,8.3,6.7,13.6,10.6
			c5.4,3.9,11.6,8.1,18.6,12.4c1.7,1.1,3.5,2.1,5.4,3.2s3.7,2.2,5.7,3.2c3.9,2.2,7.9,4.3,12.1,6.4c8.4,4.2,17.4,8.2,27,11.9
			c4.8,1.9,9.7,3.6,14.7,5.2c2.5,0.8,5,1.6,7.6,2.3c1.3,0.4,2.6,0.8,3.8,1.1c1.3,0.4,2.6,0.7,3.9,1.1c10.4,2.8,21,5.1,31.8,6.8
			c10.8,1.7,21.6,2.9,32.3,3.5s21.3,0.7,31.5,0.4c10.2-0.4,20.1-1.2,29.4-2.2c4.7-0.5,9.2-1.2,13.6-1.8c4.4-0.7,8.6-1.3,12.6-2.1
			c2-0.4,4-0.7,5.9-1.1s3.8-0.8,5.6-1.2c0.9-0.2,1.8-0.4,2.7-0.6s1.8-0.4,2.6-0.6c1.7-0.4,3.4-0.8,5-1.2c6.5-1.6,12.1-3,16.8-4.3
			c4.6-1.2,8.3-2.3,10.7-3.1c2.5-0.7,3.8-1.1,3.8-1.1s-1.3,0.5-3.7,1.3c-2.4,0.9-6,2.2-10.5,3.7c-4.6,1.5-10.1,3.3-16.6,5.1
			c-1.6,0.4-3.3,0.9-5,1.4c-0.9,0.2-1.7,0.5-2.6,0.7c-0.9,0.2-1.8,0.4-2.7,0.7c-1.8,0.5-3.7,0.9-5.6,1.4c-1.9,0.5-3.9,0.9-5.9,1.3
			c-4,0.9-8.3,1.7-12.6,2.6c-4.4,0.7-8.9,1.5-13.6,2.2c-9.4,1.3-19.4,2.4-29.7,2.9c-2.6,0.1-5.2,0.2-7.8,0.3c-2.6,0-5.3,0.1-7.9,0.1
			c-2.7,0-5.3,0-8-0.1s-5.4-0.2-8.1-0.3c-10.9-0.6-21.9-1.7-32.8-3.4c-10.9-1.8-21.7-4.1-32.2-7.1c-10.5-2.9-20.6-6.4-30.3-10.3
			c-9.6-3.8-18.7-8.2-27.1-12.6c-8.4-4.4-16.1-9.1-23-13.7c-6.9-4.5-13-9.1-18.3-13.3c-5.3-4.2-9.7-8-13.2-11.3s-6.2-6-7.9-7.9
			C655.4,418.8,654.5,417.7,654.5,417.7z"/>
	</g>
	
		<ellipse transform="matrix(0.9785 -0.2063 0.2063 0.9785 -56.5308 159.4656)" class="st15" cx="736.4" cy="350.8" rx="12.3" ry="23.3"/>
	
		<ellipse transform="matrix(0.9785 -0.2063 0.2063 0.9785 -55.1908 172.2971)" class="st15" cx="798.6" cy="350.8" rx="12.3" ry="23.3"/>
</g>
</svg>
